<?xml version="1.0" encoding="us-ascii" standalone="no"?><svg xmlns="http://www.w3.org/2000/svg" xmlns:xlink="http://www.w3.org/1999/xlink" contentStyleType="text/css" height="1301px" preserveAspectRatio="none" style="width:730px;height:1301px;background:#FFFFFF;" version="1.1" viewBox="0 0 730 1301" width="730px" zoomAndPan="magnify"><defs/><g><text fill="#000000" font-family="sans-serif" font-size="14" font-weight="bold" lengthAdjust="spacing" textLength="164" x="287" y="87.9951">EAU Nachrichtenflu&#223;</text><rect fill="none" height="948.1172" style="stroke:#D3D3D3;stroke-width:1.5;" width="619" x="60" y="210.5938"/><rect fill="none" height="496.125" style="stroke:#D3D3D3;stroke-width:1.5;" width="579" x="80" y="234.7266"/><rect fill="none" height="406.8594" style="stroke:#D3D3D3;stroke-width:1.5;" width="599" x="70" y="744.8516"/><rect fill="none" height="375.7266" style="stroke:#D3D3D3;stroke-width:1.5;" width="579" x="80" y="768.9844"/><line style="stroke:#181818;stroke-width:0.5;stroke-dasharray:5.0,5.0;" x1="141" x2="141" y1="193.5938" y2="1175.7109"/><line style="stroke:#181818;stroke-width:0.5;stroke-dasharray:5.0,5.0;" x1="256" x2="256" y1="193.5938" y2="1175.7109"/><line style="stroke:#181818;stroke-width:0.5;stroke-dasharray:5.0,5.0;" x1="602" x2="602" y1="193.5938" y2="1175.7109"/><text fill="#483D8B" font-family="sans-serif" font-size="14" lengthAdjust="spacing" textLength="97" x="90" y="190.292">Prim&#228;rsystem</text><ellipse cx="141.5" cy="125.7969" fill="#6A5ACD" rx="8" ry="8" style="stroke:#181818;stroke-width:0.5;"/><path d="M141.5,133.7969 L141.5,160.7969 M128.5,141.7969 L154.5,141.7969 M141.5,160.7969 L128.5,175.7969 M141.5,160.7969 L154.5,175.7969 " fill="none" style="stroke:#181818;stroke-width:0.5;"/><text fill="#483D8B" font-family="sans-serif" font-size="14" lengthAdjust="spacing" textLength="97" x="90" y="1187.7061">Prim&#228;rsystem</text><ellipse cx="141.5" cy="1199.5078" fill="#6A5ACD" rx="8" ry="8" style="stroke:#181818;stroke-width:0.5;"/><path d="M141.5,1207.5078 L141.5,1234.5078 M128.5,1215.5078 L154.5,1215.5078 M141.5,1234.5078 L128.5,1249.5078 M141.5,1234.5078 L154.5,1249.5078 " fill="none" style="stroke:#181818;stroke-width:0.5;"/><rect fill="#90EE90" height="30.2969" rx="2.5" ry="2.5" style="stroke:#181818;stroke-width:0.5;" width="107" x="203" y="162.2969"/><text fill="#008000" font-family="sans-serif" font-size="14" lengthAdjust="spacing" textLength="93" x="210" y="182.292">EAUTestsuite</text><rect fill="#90EE90" height="30.2969" rx="2.5" ry="2.5" style="stroke:#181818;stroke-width:0.5;" width="107" x="203" y="1174.7109"/><text fill="#008000" font-family="sans-serif" font-size="14" lengthAdjust="spacing" textLength="93" x="210" y="1194.7061">EAUTestsuite</text><path d="M561,167.2969 L644,167.2969 C649,167.2969 649,180.4453 649,180.4453 C649,180.4453 649,193.5938 644,193.5938 L561,193.5938 C556,193.5938 556,180.4453 556,180.4453 C556,180.4453 556,167.2969 561,167.2969 " fill="#8B0000" style="stroke:#181818;stroke-width:0.5;"/><path d="M644,167.2969 C639,167.2969 639,180.4453 639,180.4453 C639,193.5938 644,193.5938 644,193.5938 " fill="none" style="stroke:#181818;stroke-width:0.5;"/><text fill="#FFFFFF" font-family="sans-serif" font-size="14" lengthAdjust="spacing" textLength="73" x="561" y="185.292">Konnektor</text><path d="M561,1174.7109 L644,1174.7109 C649,1174.7109 649,1187.8594 649,1187.8594 C649,1187.8594 649,1201.0078 644,1201.0078 L561,1201.0078 C556,1201.0078 556,1187.8594 556,1187.8594 C556,1187.8594 556,1174.7109 561,1174.7109 " fill="#8B0000" style="stroke:#181818;stroke-width:0.5;"/><path d="M644,1174.7109 C639,1174.7109 639,1187.8594 639,1187.8594 C639,1201.0078 644,1201.0078 644,1201.0078 " fill="none" style="stroke:#181818;stroke-width:0.5;"/><text fill="#FFFFFF" font-family="sans-serif" font-size="14" lengthAdjust="spacing" textLength="73" x="561" y="1192.7061">Konnektor</text><path d="M60,210.5938 L136,210.5938 L136,217.7266 L126,227.7266 L60,227.7266 L60,210.5938 " fill="#EEEEEE" style="stroke:#D3D3D3;stroke-width:1.5;"/><rect fill="none" height="948.1172" style="stroke:#D3D3D3;stroke-width:1.5;" width="619" x="60" y="210.5938"/><text fill="#808080" font-family="sans-serif" font-size="13" font-weight="bold" lengthAdjust="spacing" textLength="31" x="75" y="223.6606">loop</text><text fill="#808080" font-family="sans-serif" font-size="11" font-weight="bold" lengthAdjust="spacing" textLength="373" x="151" y="222.8042">[Iteration &#252;ber alle Konnektoren X = kon24,26,28,29,30,31]</text><path d="M80,234.7266 L359,234.7266 L359,241.8594 L349,251.8594 L80,251.8594 L80,234.7266 " fill="#EEEEEE" style="stroke:#D3D3D3;stroke-width:1.5;"/><rect fill="none" height="496.125" style="stroke:#D3D3D3;stroke-width:1.5;" width="579" x="80" y="234.7266"/><text fill="#808080" font-family="sans-serif" font-size="13" font-weight="bold" lengthAdjust="spacing" textLength="234" x="95" y="247.7935">Signiervorgang mit Konnektor X</text><polygon fill="#6A5ACD" points="590.5891,278.7763,600.5,282.9922,590.4156,286.7744,594.5014,282.8621" style="stroke:#6A5ACD;stroke-width:1.0;"/><line style="stroke:#6A5ACD;stroke-width:1.0;" x1="141.5" x2="600.5" y1="272.9922" y2="282.9922"/><text fill="#6A5ACD" font-family="sans-serif" font-size="13" lengthAdjust="spacing" textLength="256" x="148.5" y="267.9263">GET &lt;signierkonnektor&gt;/connector.sds</text><polygon fill="#8B0000" points="152.4109,317.9091,142.5,322.125,152.5844,325.9072,148.4986,321.9949" style="stroke:#8B0000;stroke-width:1.0;"/><line style="stroke:#8B0000;stroke-width:1.0;stroke-dasharray:2.0,2.0;" x1="601.5" x2="141.5" y1="312.125" y2="322.125"/><text fill="#8B0000" font-family="sans-serif" font-size="13" lengthAdjust="spacing" textLength="189" x="406.5" y="307.0591">Liste aller Service Endpunkte</text><line style="stroke:#008000;stroke-width:1.0;stroke-dasharray:2.0,2.0;" x1="256.5" x2="298.5" y1="351.2578" y2="351.2578"/><line style="stroke:#008000;stroke-width:1.0;stroke-dasharray:2.0,2.0;" x1="298.5" x2="298.5" y1="351.2578" y2="364.2578"/><line style="stroke:#008000;stroke-width:1.0;stroke-dasharray:2.0,2.0;" x1="257.5" x2="298.5" y1="364.2578" y2="364.2578"/><polygon fill="#008000" points="267.5,360.2578,257.5,364.2578,267.5,368.2578,263.5,364.2578" style="stroke:#008000;stroke-width:1.0;"/><text fill="#008000" font-family="sans-serif" font-size="13" lengthAdjust="spacing" textLength="332" x="263.5" y="346.1919">warte auf Nachricht und pr&#252;fe ProductVendorName</text><polygon fill="#6A5ACD" points="590.5891,414.3075,600.5,418.5234,590.4156,422.3056,594.5014,418.3933" style="stroke:#6A5ACD;stroke-width:1.0;"/><line style="stroke:#6A5ACD;stroke-width:1.0;" x1="141.5" x2="600.5" y1="408.5234" y2="418.5234"/><text fill="#6A5ACD" font-family="sans-serif" font-size="13" lengthAdjust="spacing" textLength="325" x="148.5" y="388.3247">POST &lt;signierkonnektor&gt;/&lt;signservicepath&gt; mit</text><text fill="#6A5ACD" font-family="sans-serif" font-size="13" lengthAdjust="spacing" textLength="196" x="148.5" y="403.4575">Envelope.Body.GetJobNumber</text><polygon fill="#8B0000" points="152.4109,453.4403,142.5,457.6563,152.5844,461.4384,148.4986,457.5261" style="stroke:#8B0000;stroke-width:1.0;"/><line style="stroke:#8B0000;stroke-width:1.0;stroke-dasharray:2.0,2.0;" x1="601.5" x2="141.5" y1="447.6563" y2="457.6563"/><text fill="#8B0000" font-family="sans-serif" font-size="13" lengthAdjust="spacing" textLength="230" x="365.5" y="442.5903">XML Antwort mit einer Job Nummer</text><line style="stroke:#008000;stroke-width:1.0;stroke-dasharray:2.0,2.0;" x1="256.5" x2="298.5" y1="486.7891" y2="486.7891"/><line style="stroke:#008000;stroke-width:1.0;stroke-dasharray:2.0,2.0;" x1="298.5" x2="298.5" y1="486.7891" y2="499.7891"/><line style="stroke:#008000;stroke-width:1.0;stroke-dasharray:2.0,2.0;" x1="257.5" x2="298.5" y1="499.7891" y2="499.7891"/><polygon fill="#008000" points="267.5,495.7891,257.5,499.7891,267.5,503.7891,263.5,499.7891" style="stroke:#008000;stroke-width:1.0;"/><text fill="#008000" font-family="sans-serif" font-size="13" lengthAdjust="spacing" textLength="149" x="263.5" y="481.7231">Speichere Job Nummer</text><polygon fill="#6A5ACD" points="590.5891,549.8388,600.5,554.0547,590.4156,557.8369,594.5014,553.9246" style="stroke:#6A5ACD;stroke-width:1.0;"/><line style="stroke:#6A5ACD;stroke-width:1.0;" x1="141.5" x2="600.5" y1="544.0547" y2="554.0547"/><text fill="#6A5ACD" font-family="sans-serif" font-size="13" lengthAdjust="spacing" textLength="389" x="148.5" y="523.856">POST &lt;signierkonnektor&gt;/&lt;signservicepath&gt; mit korrekter</text><text fill="#6A5ACD" font-family="sans-serif" font-size="13" lengthAdjust="spacing" textLength="272" x="148.5" y="538.9888">Envelope.Body.SignDocument.JobNumber</text><polygon fill="#8B0000" points="152.4109,604.1044,142.5,608.3203,152.5844,612.1025,148.4986,608.1902" style="stroke:#8B0000;stroke-width:1.0;"/><line style="stroke:#8B0000;stroke-width:1.0;stroke-dasharray:2.0,2.0;" x1="601.5" x2="141.5" y1="598.3203" y2="608.3203"/><text fill="#8B0000" font-family="sans-serif" font-size="13" lengthAdjust="spacing" textLength="141" x="324.5" y="578.1216">XML Antwort mit dem</text><text fill="#8B0000" font-family="sans-serif" font-size="13" lengthAdjust="spacing" textLength="271" x="324.5" y="593.2544">signierten Base64 enkodierten Dokument</text><line style="stroke:#008000;stroke-width:1.0;stroke-dasharray:2.0,2.0;" x1="256.5" x2="298.5" y1="652.5859" y2="652.5859"/><line style="stroke:#008000;stroke-width:1.0;stroke-dasharray:2.0,2.0;" x1="298.5" x2="298.5" y1="652.5859" y2="665.5859"/><line style="stroke:#008000;stroke-width:1.0;stroke-dasharray:2.0,2.0;" x1="257.5" x2="298.5" y1="665.5859" y2="665.5859"/><polygon fill="#008000" points="267.5,661.5859,257.5,665.5859,267.5,669.5859,263.5,665.5859" style="stroke:#008000;stroke-width:1.0;"/><text fill="#008000" font-family="sans-serif" font-size="13" lengthAdjust="spacing" textLength="301" x="263.5" y="632.3872">Pr&#252;fe Envelope.Body.SignDocumentResponse.</text><text fill="#008000" font-family="sans-serif" font-size="13" lengthAdjust="spacing" textLength="236" x="263.5" y="647.52">SignResponse.Status.Result ist "OK"</text><line style="stroke:#008000;stroke-width:1.0;stroke-dasharray:2.0,2.0;" x1="256.5" x2="298.5" y1="709.8516" y2="709.8516"/><line style="stroke:#008000;stroke-width:1.0;stroke-dasharray:2.0,2.0;" x1="298.5" x2="298.5" y1="709.8516" y2="722.8516"/><line style="stroke:#008000;stroke-width:1.0;stroke-dasharray:2.0,2.0;" x1="257.5" x2="298.5" y1="722.8516" y2="722.8516"/><polygon fill="#008000" points="267.5,718.8516,257.5,722.8516,267.5,726.8516,263.5,722.8516" style="stroke:#008000;stroke-width:1.0;"/><text fill="#008000" font-family="sans-serif" font-size="13" lengthAdjust="spacing" textLength="331" x="263.5" y="689.6528">Speichere Envelope.Body.SignDocumentResponse.</text><text fill="#008000" font-family="sans-serif" font-size="13" lengthAdjust="spacing" textLength="313" x="263.5" y="704.7856">SignResponse.SignatureObject.Base64Signature</text><path d="M70,744.8516 L146,744.8516 L146,751.9844 L136,761.9844 L70,761.9844 L70,744.8516 " fill="#EEEEEE" style="stroke:#D3D3D3;stroke-width:1.5;"/><rect fill="none" height="406.8594" style="stroke:#D3D3D3;stroke-width:1.5;" width="599" x="70" y="744.8516"/><text fill="#808080" font-family="sans-serif" font-size="13" font-weight="bold" lengthAdjust="spacing" textLength="31" x="85" y="757.9185">loop</text><text fill="#808080" font-family="sans-serif" font-size="11" font-weight="bold" lengthAdjust="spacing" textLength="382" x="161" y="757.062">[Iteration &#252;ber alle Konnektoren Y&gt; = kon24,26,28,29,30,31]</text><path d="M80,768.9844 L339,768.9844 L339,776.1172 L329,786.1172 L80,786.1172 L80,768.9844 " fill="#EEEEEE" style="stroke:#D3D3D3;stroke-width:1.5;"/><rect fill="none" height="375.7266" style="stroke:#D3D3D3;stroke-width:1.5;" width="579" x="80" y="768.9844"/><text fill="#808080" font-family="sans-serif" font-size="13" font-weight="bold" lengthAdjust="spacing" textLength="214" x="95" y="782.0513">Pr&#252;fvorgang mit Konnektor Y</text><polygon fill="#6A5ACD" points="590.5891,813.0341,600.5,817.25,590.4156,821.0322,594.5014,817.1199" style="stroke:#6A5ACD;stroke-width:1.0;"/><line style="stroke:#6A5ACD;stroke-width:1.0;" x1="141.5" x2="600.5" y1="807.25" y2="817.25"/><text fill="#6A5ACD" font-family="sans-serif" font-size="13" lengthAdjust="spacing" textLength="238" x="148.5" y="802.1841">GET &lt;pr&#252;fkonnektor&gt;/connector.sds</text><polygon fill="#8B0000" points="152.4109,852.1669,142.5,856.3828,152.5844,860.165,148.4986,856.2527" style="stroke:#8B0000;stroke-width:1.0;"/><line style="stroke:#8B0000;stroke-width:1.0;stroke-dasharray:2.0,2.0;" x1="601.5" x2="141.5" y1="846.3828" y2="856.3828"/><text fill="#8B0000" font-family="sans-serif" font-size="13" lengthAdjust="spacing" textLength="189" x="406.5" y="841.3169">Liste aller Service Endpunkte</text><line style="stroke:#008000;stroke-width:1.0;stroke-dasharray:2.0,2.0;" x1="256.5" x2="298.5" y1="885.5156" y2="885.5156"/><line style="stroke:#008000;stroke-width:1.0;stroke-dasharray:2.0,2.0;" x1="298.5" x2="298.5" y1="885.5156" y2="898.5156"/><line style="stroke:#008000;stroke-width:1.0;stroke-dasharray:2.0,2.0;" x1="257.5" x2="298.5" y1="898.5156" y2="898.5156"/><polygon fill="#008000" points="267.5,894.5156,257.5,898.5156,267.5,902.5156,263.5,898.5156" style="stroke:#008000;stroke-width:1.0;"/><text fill="#008000" font-family="sans-serif" font-size="13" lengthAdjust="spacing" textLength="332" x="263.5" y="880.4497">warte auf Nachricht und pr&#252;fe ProductVendorName</text><polygon fill="#6A5ACD" points="590.5891,963.6981,600.5,967.9141,590.4156,971.6963,594.5014,967.7839" style="stroke:#6A5ACD;stroke-width:1.0;"/><line style="stroke:#6A5ACD;stroke-width:1.0;" x1="141.5" x2="600.5" y1="957.9141" y2="967.9141"/><text fill="#6A5ACD" font-family="sans-serif" font-size="13" lengthAdjust="spacing" textLength="365" x="148.5" y="922.5825">POST &lt;pr&#252;fkonnektor&gt;/&lt;verifysvcpath&gt; mit korrektem</text><text fill="#6A5ACD" font-family="sans-serif" font-size="13" lengthAdjust="spacing" textLength="211" x="148.5" y="937.7153">Envelope.Body.VerifyDocument.</text><text fill="#6A5ACD" font-family="sans-serif" font-size="13" lengthAdjust="spacing" textLength="218" x="148.5" y="952.8481">SignatureObject.Base64Signature</text><polygon fill="#8B0000" points="152.4109,1017.9638,142.5,1022.1797,152.5844,1025.9619,148.4986,1022.0496" style="stroke:#8B0000;stroke-width:1.0;"/><line style="stroke:#8B0000;stroke-width:1.0;stroke-dasharray:2.0,2.0;" x1="601.5" x2="141.5" y1="1012.1797" y2="1022.1797"/><text fill="#8B0000" font-family="sans-serif" font-size="13" lengthAdjust="spacing" textLength="141" x="434.5" y="991.981">XML Antwort mit dem</text><text fill="#8B0000" font-family="sans-serif" font-size="13" lengthAdjust="spacing" textLength="161" x="434.5" y="1007.1138">Ergebnis der Verifikation</text><line style="stroke:#008000;stroke-width:1.0;stroke-dasharray:2.0,2.0;" x1="256.5" x2="298.5" y1="1066.4453" y2="1066.4453"/><line style="stroke:#008000;stroke-width:1.0;stroke-dasharray:2.0,2.0;" x1="298.5" x2="298.5" y1="1066.4453" y2="1079.4453"/><line style="stroke:#008000;stroke-width:1.0;stroke-dasharray:2.0,2.0;" x1="257.5" x2="298.5" y1="1079.4453" y2="1079.4453"/><polygon fill="#008000" points="267.5,1075.4453,257.5,1079.4453,267.5,1083.4453,263.5,1079.4453" style="stroke:#008000;stroke-width:1.0;"/><text fill="#008000" font-family="sans-serif" font-size="13" lengthAdjust="spacing" textLength="274" x="263.5" y="1046.2466">Envelope.Body.VerifyDocumentResponse.</text><text fill="#008000" font-family="sans-serif" font-size="13" lengthAdjust="spacing" textLength="141" x="263.5" y="1061.3794">Status.Result ist "OK"</text><line style="stroke:#008000;stroke-width:1.0;stroke-dasharray:2.0,2.0;" x1="256.5" x2="298.5" y1="1123.7109" y2="1123.7109"/><line style="stroke:#008000;stroke-width:1.0;stroke-dasharray:2.0,2.0;" x1="298.5" x2="298.5" y1="1123.7109" y2="1136.7109"/><line style="stroke:#008000;stroke-width:1.0;stroke-dasharray:2.0,2.0;" x1="257.5" x2="298.5" y1="1136.7109" y2="1136.7109"/><polygon fill="#008000" points="267.5,1132.7109,257.5,1136.7109,267.5,1140.7109,263.5,1136.7109" style="stroke:#008000;stroke-width:1.0;"/><text fill="#008000" font-family="sans-serif" font-size="13" lengthAdjust="spacing" textLength="274" x="263.5" y="1103.5122">Envelope.Body.VerifyDocumentResponse.</text><text fill="#008000" font-family="sans-serif" font-size="13" lengthAdjust="spacing" textLength="301" x="263.5" y="1118.645">VerificationResult.HighLevelResult ist "VALID"</text><!--SRC=[hLNDJjj04BxxAKQSMYcO42XgKHe9IWgKyAE68f2uREp1sThUDRlheAZAi_JIn-36YtMywoGcX0G1bYpRCplVp3SpNw9ZBZAcM0gvnbqqh6k62O9HENfwujDucwC8y1YrPX7k93mI47A5WU5IU4rT1BKye2jbAk82FjNfQqItuORm_bHzZR5l3Bl7MLIaSQTyeyitWEzIc6yoaGeYXIXAQuSBdBMENAp2sqbmDLmdp60l8LPZtnJaiMy2fES2XKp52iCvC5MF0w7c6HxmZ0bJmTfbGHmfcOlGnL4p-wPARpvj1ya2GzRdmPxoV5pwFAuqX1mNOCvIdYBUzRcP8esyvbgv2PNTwPP3tYV4p6RPbIf4zOWy6tgFMLl30J8wE6CUUPxTgMrex_o24nRq5G_w1iLDaZ_yzJpNeJF5quT_IW-rmHIOXao3JGlhTQyw5m8vHsrqJaoASsPyZhRKDUP82e5n0KhkM8hIlr7tl4JA30uDAbRe01xkU-HWIL89GW6NyBM8QspM6bkrnkTQuqjjerxRMBUDYsnRkYGeZceWLSH412atbRINRfaqhBO-hDS_sXgQJThqLWksORzz3atjukDnJ6ijA5wBLlWwr1QW25ij8GYiGD0MeSDrmPtALZGjDU01Gbk4MIxYShhK58ei7iscSK5tr4CAoc-c8m3Q6CZKm_qDKlzbc0Vc0aKerGbBqLj8ukoqEvU5DMbNKyPClsLRSotQOe29pD3VbU7GtqVpG_PEyfJQlvZgvN47TeIvayfO92JrAg1WeEYqZ9x3jfiXCKI5rRFlo2YMIj41gcMMMx4PUpB8KnJ6VoNB4DDhKPP2GY61QzpQ11In34lJdenjYkSQSER6-dnjFr5daeZvrw8mJpwxXfbS-_IT9mPeqs3bz6XbUPzVaOa-A9V2qzvlsdpViPnORKfQHpUsbodtghL8kbFvskxC5-_LvEXI4LlfB9Jm-7g3bCVNUqZw9SoS3cQfDGUe-CrG3uAd6aYVQE327fwemCrzsQYNzcgkIjegmfxW6egVU9kNntP5bZLlKSNLZNrU3cy7T_K6jbwNmJ-W_zSEKdGruyLEvt1lchGGnVX9zty0]--></g></svg>